9000	<?xml version="1.0" standalone="no"?> 
9001	<!DOCTYPE svg PUBLIC "-//W3C//DTD SVG 20010904//EN" 
9002	 "http://www.w3.org/TR/2001/REC-SVG-20010904/DTD/svg10.dtd"> 
9003	<svg version="1.0" xmlns="http://www.w3.org/2000/svg" 
9004	 width="1650.000000pt" height="510.000000pt" viewBox="0 0 1650.000000 510.000000" 
9005	 preserveAspectRatio="xMidYMid meet"> 
9006	<metadata> 
9007	Created by potrace 1.16, written by Peter Selinger 2001-2019 
9008	</metadata> 
9009	<g transform="translate(0.000000,510.000000) scale(0.100000,-0.100000)" 
9010	fill="#000000" stroke="none"> 
9011	<path d="M0 2550 l0 -2550 8250 0 8250 0 0 2550 0 2550 -8250 0 -8250 0 0 
9012	-2550z m3384 2311 c15 -6 40 -11 56 -11 45 0 312 -69 367 -95 17 -8 35 -15 41 
9013	-15 9 0 78 -29 182 -77 124 -58 317 -180 444 -281 187 -149 393 -379 519 -580 
9014	102 -162 200 -376 250 -542 47 -157 57 -196 57 -219 1 -14 8 -53 17 -86 11 
9015	-45 17 -129 20 -334 5 -290 -1 -366 -48 -571 -130 -561 -464 -1052 -949 -1392 
9016	-61 -42 -272 -168 -283 -168 -3 0 -38 -15 -79 -33 -110 -51 -126 -57 -218 -87 
9017	-128 -43 -200 -63 -255 -71 -27 -4 -86 -14 -130 -22 -113 -22 -406 -31 -543 
9018	-18 -723 69 -1344 439 -1739 1036 -169 255 -284 538 -347 858 -37 181 -45 589 
9019	-15 732 6 28 14 75 18 105 64 441 348 958 702 1277 137 123 163 144 295 233 
9020	247 165 571 301 814 341 30 5 75 14 100 20 109 26 654 26 724 0z m3547 -1131 
9021	c30 -16 24 -60 -30 -222 -53 -161 -70 -194 -106 -208 -30 -11 -46 -6 -109 37 
9022	l-48 33 -267 -1 c-146 -1 -277 -4 -290 -8 -48 -13 -66 -53 -71 -164 -7 -147 0 
9023	-212 28 -239 21 -21 33 -23 153 -26 72 -2 141 -1 154 2 13 3 42 22 66 41 54 
9024	46 87 44 111 -5 15 -30 18 -65 18 -243 l0 -208 -25 -25 c-29 -29 -42 -27 -117 
9025	19 -51 32 -52 32 -189 32 -123 0 -139 -2 -159 -20 -12 -11 -26 -30 -31 -43 -5 
9026	-12 -9 -224 -9 -469 -1 -423 0 -449 18 -472 35 -47 78 -52 437 -49 l330 3 65 
9027	32 c73 37 96 40 122 16 26 -24 23 -57 -21 -195 -56 -175 -69 -204 -97 -217 
9028	-18 -8 -209 -11 -666 -11 -583 0 -643 2 -660 17 -29 26 -23 68 20 114 l37 42 
9029	3 1132 2 1132 -25 34 c-13 19 -32 44 -41 56 -21 29 -11 71 19 83 32 13 1353 
9030	13 1378 0z m873 0 c49 -18 50 -42 6 -127 l-41 -78 25 -120 c14 -66 44 -196 66 
9031	-290 47 -199 104 -441 160 -680 77 -330 98 -407 114 -423 28 -28 42 3 80 173 
9032	19 88 58 259 86 380 28 121 89 390 136 597 l86 377 -36 58 c-45 73 -48 119 -9 
9033	134 16 6 120 9 269 7 241 -3 243 -3 268 -27 35 -33 33 -54 -13 -104 -21 -23 
9034	-43 -51 -49 -62 -10 -19 -48 -176 -195 -800 -175 -741 -242 -1020 -284 -1190 
9035	-26 -104 -47 -206 -47 -225 0 -22 12 -54 32 -86 37 -60 39 -77 12 -104 -19 
9036	-19 -33 -20 -320 -20 -250 0 -306 3 -330 15 -46 24 -44 61 7 119 34 40 35 42 
9037	30 111 -3 39 -34 189 -70 335 -35 146 -97 398 -136 560 -100 418 -167 695 
9038	-202 840 -108 451 -106 443 -159 504 -31 35 -46 83 -33 102 22 30 53 33 285 
9039	34 130 0 248 -4 262 -10z m2054 -6 c33 -23 28 -59 -18 -116 l-40 -51 0 -1133 
9040	0 -1134 34 -38 c46 -50 54 -84 27 -111 -20 -20 -31 -21 -263 -21 -211 0 -244 
9041	2 -260 17 -29 26 -23 68 20 114 l37 42 3 1131 2 1132 -40 54 c-45 60 -49 81 
9042	-20 110 19 19 33 20 258 20 199 0 241 -3 260 -16z m988 -9 c30 -30 27 -48 -22 
9043	-112 l-34 -45 0 -989 c0 -834 2 -995 14 -1024 22 -52 53 -57 384 -53 l287 3 
9044	67 33 c37 17 76 32 86 32 23 0 47 -26 55 -59 8 -31 -89 -333 -116 -361 -17 
9045	-19 -35 -20 -624 -20 -550 0 -608 2 -625 17 -29 26 -23 68 20 114 l37 42 3 
9046	1132 2 1133 -40 53 c-22 29 -40 61 -40 69 0 20 20 46 40 53 8 3 120 6 248 6 
9047	l233 1 25 -25z m1734 5 c25 -25 25 -27 -7 -107 l-26 -66 23 -69 c27 -78 219 
9048	-471 248 -507 26 -32 44 -24 82 36 54 84 187 361 216 449 l27 85 -23 52 c-32 
9049	72 -32 117 0 134 35 18 485 18 519 0 59 -30 53 -66 -23 -162 -31 -39 -69 -102 
9050	-86 -144 -36 -86 -259 -527 -357 -702 -35 -64 -66 -132 -69 -150 -5 -29 10 
9051	-67 94 -239 108 -220 223 -481 358 -809 46 -112 102 -230 124 -263 45 -68 50 
9052	-100 18 -122 -19 -14 -66 -16 -308 -16 -209 0 -289 3 -298 12 -19 19 -14 51 
9053	19 116 l31 60 -22 74 c-25 84 -87 258 -154 433 -119 309 -156 374 -192 345 
9054	-53 -45 -344 -744 -344 -828 0 -11 11 -44 24 -73 38 -88 39 -96 17 -118 -20 
9055	-20 -32 -21 -286 -21 l-265 0 -16 25 c-20 30 -14 49 39 117 48 61 62 91 148 
9056	308 109 278 278 649 392 863 26 48 47 101 47 117 0 36 -34 116 -82 190 -76 
9057	120 -291 531 -382 733 -19 43 -53 103 -75 135 -53 77 -58 96 -29 116 19 14 64 
9058	16 310 16 275 0 289 -1 308 -20z m2543 -8 c100 -27 174 -67 264 -143 228 -190 
9059	386 -518 424 -881 14 -136 6 -446 -15 -569 -84 -490 -283 -825 -561 -942 -116 
9060	-49 -135 -50 -618 -55 -424 -3 -460 -2 -478 14 -30 27 -24 69 19 115 l37 42 3 
9061	1131 2 1132 -40 54 c-45 61 -49 81 -19 111 21 21 24 21 463 17 410 -5 446 -6 
9062	519 -26z m-8012 -149 c43 -49 43 -53 -11 -251 -28 -103 -59 -200 -68 -217 -12 
9063	-19 -33 -35 -59 -44 -44 -16 -30 -20 -167 53 -49 26 -50 26 -280 26 -264 0 
9064	-276 -3 -276 -68 0 -51 -11 -64 -51 -60 -46 4 -61 35 -56 117 3 55 7 67 31 87 
9065	l27 24 283 0 282 0 50 -35 c68 -48 102 -45 134 14 18 34 100 319 100 348 0 16 
9066	3 33 6 36 8 8 35 -6 55 -30z m869 -19 c44 -41 50 -51 50 -88 0 -23 -4 -55 -9 
9067	-73 -7 -23 -4 -53 10 -110 11 -43 55 -226 99 -408 l81 -330 -17 -70 c-28 -119 
9068	-40 -114 -74 29 -12 50 -49 201 -82 336 -138 570 -142 588 -134 636 3 21 9 58 
9069	12 82 4 23 8 42 11 42 2 0 26 -21 53 -46z m4815 -27 c9 -12 27 -57 40 -99 14 
9070	-43 41 -110 61 -150 35 -70 36 -72 20 -105 -19 -40 -40 -50 -63 -32 -9 8 -47 
9071	79 -85 159 -69 144 -70 145 -59 193 6 27 11 60 11 73 l0 25 30 -21 c16 -12 37 
9072	-31 45 -43z m1065 0 c33 -53 26 -73 -48 -151 -55 -57 -82 -97 -134 -201 -36 
9073	-71 -114 -218 -172 -325 -125 -229 -150 -290 -141 -340 4 -19 61 -150 127 
9074	-290 129 -272 306 -679 393 -900 29 -74 74 -177 99 -229 60 -124 61 -157 2 
9075	-189 -26 -14 -68 -17 -281 -20 -331 -5 -346 -3 -407 56 -26 26 -48 52 -48 57 
9076	0 7 105 9 301 7 261 -3 304 -1 325 13 36 23 32 68 -9 119 -46 55 -40 44 -186 
9077	398 -136 329 -204 484 -345 788 -51 110 -86 198 -86 217 0 20 27 83 75 175 41 
9078	79 136 265 211 413 118 234 144 278 195 332 35 36 62 74 65 92 6 26 9 29 26 
9079	20 10 -6 28 -25 38 -42z m-4620 -58 c0 -19 -16 -46 -50 -85 -60 -69 -54 -48 
9080	-165 -529 -47 -203 -118 -505 -156 -670 -39 -165 -93 -397 -120 -515 -28 -118 
9081	-62 -262 -76 -320 -36 -150 -39 -220 -14 -299 39 -118 23 -154 -72 -166 -31 
9082	-4 -161 -5 -289 -3 -219 4 -236 5 -281 27 -44 22 -96 75 -84 87 3 3 140 5 304 
9083	4 279 0 302 1 323 18 l24 19 -22 54 c-35 86 -35 107 -8 219 14 58 88 375 166 
9084	705 77 330 149 636 159 680 11 44 38 159 60 255 118 501 104 454 155 514 25 
9085	29 50 66 56 82 l11 27 39 -38 c27 -27 40 -48 40 -66z m853 32 c41 -46 41 -50 
9086	-10 -127 l-33 -50 2 -1080 3 -1079 38 -85 c43 -99 47 -140 16 -169 -31 -28 
9087	-81 -33 -295 -29 -178 3 -191 4 -227 26 -31 20 -87 79 -87 93 0 2 102 3 227 1 
9088	124 -2 237 -1 250 3 13 3 29 17 35 30 10 21 6 33 -28 87 l-39 63 0 1120 0 
9089	1120 38 54 c20 29 37 60 37 67 0 22 29 3 73 -45z m980 0 c41 -45 41 -51 -7 
9090	-121 l-31 -45 -5 -880 -5 -880 -32 -3 c-22 -2 -38 3 -52 17 -21 21 -21 26 -21 
9091	919 l0 899 40 56 c22 30 40 65 40 77 0 17 3 19 18 11 10 -6 35 -28 55 -50z 
9092	m4660 -75 c154 -161 249 -363 304 -641 24 -126 24 -474 -1 -635 -39 -260 -102 
9093	-469 -200 -667 -78 -157 -146 -255 -245 -353 -88 -88 -169 -140 -280 -180 
9094	-154 -57 -224 -64 -571 -65 -351 0 -333 -3 -414 73 -54 51 -58 64 -14 51 18 
9095	-5 186 -9 373 -9 360 0 436 7 565 50 366 122 639 598 700 1219 20 210 5 470 
9096	-40 659 -40 166 -135 370 -244 521 -52 73 -54 79 -21 57 17 -10 56 -46 88 -80z 
9097	m-8962 -706 c7 -22 9 -109 7 -235 -3 -218 -11 -252 -59 -269 -37 -13 -65 -3 
9098	-144 49 l-69 45 -116 0 c-77 0 -120 -4 -128 -12 -9 -9 -12 -102 -12 -359 0 
9099	-380 0 -377 -58 -364 -18 3 -34 16 -41 31 -16 37 -15 730 2 764 24 49 69 61 
9100	207 58 125 -3 126 -3 166 -35 22 -17 53 -37 68 -44 24 -11 29 -10 49 9 21 22 
9101	22 31 25 240 1 119 5 224 8 232 8 21 80 -64 95 -110z m6075 -815 c14 -34 12 
9102	-40 -80 -297 -156 -436 -151 -412 -107 -547 56 -169 45 -176 -254 -176 -246 0 
9103	-250 1 -319 72 l-37 38 252 5 c238 5 252 6 265 25 11 17 9 28 -9 75 -35 89 
9104	-29 169 26 320 50 140 156 406 188 475 27 57 54 60 75 10z m-5681 -539 c15 
9105	-20 25 -46 25 -67 0 -19 -27 -109 -60 -200 -67 -187 -80 -204 -162 -214 -29 
9106	-3 -298 -5 -598 -3 l-545 3 -47 23 c-50 25 -98 73 -98 98 0 11 4 12 19 4 13 
9107	-6 230 -10 635 -10 l614 0 29 28 c38 38 124 278 123 345 0 44 1 47 20 37 10 
9108	-6 31 -25 45 -44z m4684 -2 c31 -40 26 -91 -23 -252 -47 -153 -61 -182 -103 
9109	-209 -25 -17 -68 -18 -568 -18 -297 0 -553 4 -568 8 -33 9 -127 93 -127 113 0 
9110	10 6 11 26 4 15 -6 247 -10 590 -10 l565 0 23 24 c25 24 101 242 112 319 9 66 
9111	11 69 33 57 11 -5 29 -22 40 -36z"/> 
9112	<path d="M14683 3350 c-77 -40 -73 15 -73 -927 0 -942 -4 -889 74 -927 45 -22 
9113	190 -26 270 -7 231 55 382 284 425 646 37 311 17 599 -55 815 -49 144 -124 
9114	256 -222 330 -80 60 -149 82 -272 87 -93 4 -110 2 -147 -17z m324 -102 c30 -7 
9115	59 -24 85 -50 40 -40 52 -75 21 -64 -39 15 -151 29 -184 22 -20 -3 -45 -16 
9116	-55 -27 -18 -20 -19 -54 -24 -793 l-5 -771 -39 1 c-25 1 -44 8 -53 20 -10 14 
9117	-13 163 -13 781 0 673 2 767 16 802 31 78 131 110 251 79z"/> 
9118	</g> 
9119	</svg>